#!OML:ASF E:/inclinewalkrobotboard/Project1/Captureday1/Session1/subject1.ASF
:FULLY-SPECIFIED
:DEGREES
1
root 0 0 0 1.698420956234378 -3.734884505533536 2.299235991480951
lowerback 12.055498902369584 1.0802125894701542 -0.23253496063366774
upperback -4.458724408639742 1.3315777274686431 -0.8467134474317183
thorax -11.616567929213568 0.6184171970012907 -1.0279903767133616
lowerneck -6.18787898351227 1.7981599080560844 4.865012186021248
upperneck 18.16457109260434 3.3597960493708996 -8.560613050711963
head 6.683243078617005 1.2528340433861085 -3.314060344685151
rclavicle -2.5403872712161343E-15 -1.2923442273120366E-15
rhumerus 22.422808046135586 16.84341479518953 -48.089403850539355
rradius 74.20570374806641
rwrist 26.31810507331592
rhand -34.730519225662626 -57.850014851210105
rfingers 7.12502
rthumb -7.875596902239016 -87.75367582441064
lclavicle -1.5711060428319648E-15 -1.086292375684264E-15
lhumerus 22.338142892710543 -14.48677271783719 45.788662016645745
lradius 71.26716503115546
lwrist -21.395482118583097
lhand -45.239724563180594 -68.96135380373913
lfingers 7.125020000000011
lthumb -18.01628258454027 -39.709692246249446
rfemur -27.85844086976053 -1.7464060526008005 16.85548212459894
rtibia 51.5822957395933
rfoot -27.442022245169362 -17.503037681282485
rtoes -19.035032160314422
lfemur -26.05345348090323 3.0496424410620118 -15.640037146712048
ltibia 53.89802672313257
lfoot -27.232437818341275 -0.6673131992457106
ltoes -19.74594004638357
2
root 0 0 0 1.7505988691092704 -3.8156944585816195 2.272237801682949
lowerback 12.068879698492154 1.1079510502294387 -0.19101386085156058
upperback -4.456058496925698 1.3745427439147007 -0.8522795069350623
thorax -11.620389080105998 0.6380719526295549 -1.0626240107522793
lowerneck -6.214387432774741 1.7934180215973992 4.864681379980074
upperneck 18.16202784868212 3.352123117902341 -8.558779432695808
head 6.686818090934369 1.2494026825344644 -3.314500612297455
rclavicle -2.3999980057802685E-15 -1.2625698675884105E-15
rhumerus 22.94406814878125 17.42772426151256 -48.2669510604945
rradius 74.64799127394981
rwrist 26.081228770540058
rhand -34.80472639402558 -58.103969836209245
rfingers 7.12502
rthumb -7.947847078431785 -88.0114981672762
lclavicle -1.3652682345939943E-15 -9.966631831856855E-16
lhumerus 22.51653750025494 -14.637946521860368 45.771238183111286
lradius 71.41833598959957
lwrist -21.355329324107934
lhand -45.292016783507016 -69.03019559782189
lfingers 7.125020000000013
lthumb -18.06623733639374 -39.78932094840219
rfemur -27.210258906739966 -1.4878243135280957 17.40984879599032
rtibia 49.368804376375266
rfoot -29.944469290164225 -17.96900821404411
rtoes -20.180851387746703
lfemur -27.033906391080443 2.8119729765140877 -15.523723658787615
ltibia 51.36685472170601
lfoot -29.702519421049544 1.048014612719971
ltoes -20.145376445328026
3
root 0 0 0 1.801916563567378 -3.8775887173692314 2.2342033590938297
lowerback 12.056946142063428 1.1326072064538715 -0.15188950204854612
upperback -4.452068816641732 1.413660702230366 -0.8522612813356746
thorax -11.606752924907422 0.6557606430061238 -1.0905815394922824
lowerneck -6.240946120388986 1.7811158746718438 4.851214383352857
upperneck 18.151112513837873 3.33186528013042 -8.533659822840292
head 6.688141807836822 1.241441165504447 -3.3062480637084875
rclavicle -2.3462731846979956E-15 -1.17711850249375E-15
rhumerus 23.259490527686573 17.82792293022024 -48.46940542536588
rradius 74.90708333277885
rwrist 25.845606453102874
rhand -34.826485443270265 -58.14901870605336
rfingers 7.12502
rthumb -7.969301775352854 -88.05435483728144
lclavicle -1.2834184281983298E-15 -8.866523178824652E-16
lhumerus 22.584106590722698 -14.75888827056805 45.80656221493551
lradius 71.49519246815912
lwrist -21.286373606714157
lhand -45.29817444241358 -68.94136705236613
lfingers 7.125020000000013
lthumb -18.071654777903518 -39.702419664768684
rfemur -26.360057613217684 -1.1137559707135134 18.07220907195471
rtibia 46.716104519700956
rfoot -32.247681858152845 -18.24871952824104
rtoes -21.327766833903944
lfemur -27.51718767334132 2.468150507330301 -15.463862737546446
ltibia 48.46723568266229
lfoot -31.852383446305844 2.6916270499440076
ltoes -20.568436232108965
4
root 0 0 0 1.8470191788491586 -3.917079790173518 2.197330620153134
lowerback 12.032081048050614 1.151964830136012 -0.1195534066812386
upperback -4.449505666324173 1.4448459749490357 -0.8503169901409894
thorax -11.586607470418892 0.6696884507261721 -1.112088496360305
lowerneck -6.260711137694476 1.7670177089074268 4.835404240498485
upperneck 18.142489602304 3.308923528224965 -8.50381710869698
head 6.689258259598246 1.2324415761611438 -3.296267675956603
rclavicle -2.261325722675269E-15 -1.0973760613572612E-15
rhumerus 23.457356259278725 18.09405409458362 -48.62742941976812
rradius 75.06631032113478
rwrist 25.66746770060036
rhand -34.83258918323815 -58.140523874369094
rfingers 7.12502
rthumb -7.975436263514029 -88.04397519496368
lclavicle -1.1780017588054278E-15 -7.911760893328454E-16
lhumerus 22.602639820858478 -14.827389283363608 45.84026324542613
lradius 71.52730581090341
lwrist -21.235861714848305
lhand -45.29183686770199 -68.8492477825813
lfingers 7.125020000000012
lthumb -18.06513428213576 -39.609310872127196
rfemur -25.577435510307556 -0.6880681823183021 18.672181828960415
rtibia 43.95513328059162
rfoot -34.01688579293642 -18.374637741350192
rtoes -22.392963685260383
lfemur -27.572854707489284 2.106573643820091 -15.473125521033943
ltibia 45.78663624225351
lfoot -33.27996158190801 3.8926571854308305
ltoes -20.928424644261373
5
root 0 0 0 1.8815230661596836 -3.9334422507421865 2.1643758702404408
lowerback 12.002639438881355 1.1643847894893504 -0.09331442881709351
upperback -4.449121867607223 1.4658144067180578 -0.8469063183694222
thorax -11.566243807353285 0.6788308688770617 -1.1274565200113007
lowerneck -6.271677157976031 1.7536562036861316 4.822231487537366
upperneck 18.143089096633297 3.2878385708399307 -8.478645468155229
head 6.691970920065601 1.2238951915980647 -3.2880662890014127
rclavicle -2.1876987633916115E-15 -1.0465469193719496E-15
rhumerus 23.532646033511114 18.203580320472398 -48.70484117574185
rradius 75.1243566712474
rwrist 25.582539654377925
rhand -34.83072813533492 -58.115069887078896
rfingers 7.125019999999999
rthumb -7.973628706994933 -88.01855489210337
lclavicle -1.0888368664824542E-15 -7.3959595120018705E-16
lhumerus 22.580133728855536 -14.82562646063088 45.85500143242394
lradius 71.51344306202786
lwrist -21.2237328118211
lhand -45.28114788776765 -68.80403305786982
lfingers 7.125020000000012
lthumb -18.054455878871384 -39.56139962469773
rfemur -24.91504263026846 -0.3145863935005173 19.120623302259666
rtibia 41.69415997834835
rfoot -35.08457345792327 -18.370388516237746
rtoes -23.23092919203915
lfemur -27.340869710351228 1.7890346959690406 -15.493173428084248
ltibia 43.694949957538135
lfoot -33.80982231735244 4.514699003264751
ltoes -21.189962617335926
